<svg xmlns="http://www.w3.org/2000/svg" viewBox="0 0 91.48 84.89"><defs><style>.cls-1{fill:#ffe812;}.cls-2{fill:#3d1d1c;}</style></defs><g id="레이어_2" data-name="레이어 2"><g id="레이어_1-2" data-name="레이어 1"><path class="cls-1" d="M23.17,46.39c-.09,3.33-5.22,3.34-5.31,0V30.62H13.72a2.6,2.6,0,0,1,0-5.19H27.31a2.6,2.6,0,0,1,0,5.19H23.17Z"/><path class="cls-1" d="M45.47,48.52c-1.19.63-3.49.48-3.89-.81l-1.32-3.44H32.17l-1.31,3.45c-.4,1.28-2.71,1.43-3.9.8-.73-.34-1.43-1.26-.63-3.77l6.35-16.7a3.71,3.71,0,0,1,7.07,0l6.35,16.7C46.9,47.26,46.2,48.18,45.47,48.52Z"/><path class="cls-1" d="M58.88,48.53H50.37a2.5,2.5,0,0,1-2.55-2.43v-18c.1-3.49,5.33-3.5,5.42,0V43.67h5.64A2.43,2.43,0,1,1,58.88,48.53Z"/><path class="cls-1" d="M79.65,46.54a2.67,2.67,0,0,1-4.74,1.23l-6.23-8.25-.92.92v5.79a2.65,2.65,0,0,1-5.3,0V28.08a2.65,2.65,0,0,1,5.3,0v5.7l7.41-7.4a2.49,2.49,0,0,1,3.49,3.49l-6,6.05,6.53,8.65A2.62,2.62,0,0,1,79.65,46.54Z"/><polygon class="cls-2" points="33.57 39.58 38.87 39.58 36.22 32.05 33.57 39.58"/><path class="cls-2" d="M46,0C1.86-.23-18.58,46.31,21.51,67c-.7,2.43-4.53,15.63-4.68,16.66a1,1,0,0,0,1.51,1.15c1.45-.21,16.78-11,19.44-12.85C101.35,79.56,113.87,2.92,46,0Z"/></g></g></svg>